# xmcd CD database file
#
# Track frame offsets:
#	150
#	20918
#	38021
#	54272
#
# Disc length: 1042 seconds
#
# Revision: 0
# Processed by: cddbd v1.5.1PL0 Copyright (c) Steve Scherf et al.
# Submitted via: CDex 1.60beta1
#
DISCID=2a041004
DTITLE=東京スカパラダイスオーケストラ - STROKE OF FATE
DYEAR=2005
DGENRE=Ska
TTITLE0=STROKE OF FATE
TTITLE1=栄光のエムブレム
TTITLE2=KNOCKDOWN BLOW
TTITLE3=STROKE OF FATE (version)
EXTD=YEAR: 2005
EXTT0=
EXTT1=
EXTT2=
EXTT3=
PLAYORDER=
